STARTFONT 2.1
FONT -Misc-Ohsnapmod-Bold-R-Normal--14-101-100-100-C-70-ISO8859-1
SIZE 10 100 100
FONTBOUNDINGBOX 8 15 0 -3
COMMENT "Generated by fontforge, http://fontforge.sourceforge.net"
STARTPROPERTIES 24
FONTNAME_REGISTRY ""
FOUNDRY "Misc"
FAMILY_NAME "Ohsnapmod"
WEIGHT_NAME "Bold"
SLANT "R"
SETWIDTH_NAME "Normal"
ADD_STYLE_NAME ""
PIXEL_SIZE 14
POINT_SIZE 101
RESOLUTION_X 100
RESOLUTION_Y 100
SPACING "C"
AVERAGE_WIDTH 70
CHARSET_REGISTRY "ISO8859"
CHARSET_ENCODING "1"
COPYRIGHT "Copyright (c) 2015, Dan Church,,651-206-7515,+1-651-206-7515"
CAP_HEIGHT 8
X_HEIGHT 6
WEIGHT 10
QUAD_WIDTH 7
_GBDFED_INFO "Edited with gbdfed 1.6."
RESOLUTION 138
FONT_ASCENT 11
FONT_DESCENT 3
ENDPROPERTIES
CHARS 228
STARTCHAR U+0000
ENCODING 0
SWIDTH 360 0
DWIDTH 7 0
BBX 6 8 1 0
BITMAP
FC
CC
CC
CC
CC
CC
CC
FC
ENDCHAR
STARTCHAR U+25C6
ENCODING 1
SWIDTH 360 0
DWIDTH 8 0
BBX 8 7 0 1
BITMAP
18
3C
7E
FF
7E
3C
18
ENDCHAR
STARTCHAR U+2592
ENCODING 2
SWIDTH 360 0
DWIDTH 7 0
BBX 7 14 0 -3
BITMAP
92
24
48
92
24
48
92
24
48
92
24
48
92
24
ENDCHAR
STARTCHAR U+2409
ENCODING 3
SWIDTH 360 0
DWIDTH 8 0
BBX 8 13 0 -1
BITMAP
CC
CC
FC
CC
CC
CC
00
3F
0C
0C
0C
0C
0C
ENDCHAR
STARTCHAR U+240C
ENCODING 4
SWIDTH 360 0
DWIDTH 8 0
BBX 8 13 0 -1
BITMAP
FC
C0
F0
C0
C0
C0
00
3F
30
3C
30
30
30
ENDCHAR
STARTCHAR U+240D
ENCODING 5
SWIDTH 360 0
DWIDTH 8 0
BBX 8 13 0 -1
BITMAP
78
CC
C0
C0
CC
78
00
3E
33
33
3E
36
33
ENDCHAR
STARTCHAR U+240A
ENCODING 6
SWIDTH 360 0
DWIDTH 8 0
BBX 8 13 0 -1
BITMAP
C0
C0
C0
C0
C0
F8
00
3F
30
3C
30
30
30
ENDCHAR
STARTCHAR U+00B0
ENCODING 7
SWIDTH 360 0
DWIDTH 8 0
BBX 5 4 1 7
BITMAP
70
D8
D8
70
ENDCHAR
STARTCHAR U+00B1
ENCODING 8
SWIDTH 360 0
DWIDTH 8 0
BBX 6 7 1 0
BITMAP
30
30
FC
30
30
00
FC
ENDCHAR
STARTCHAR U+09E8
ENCODING 9
SWIDTH 360 0
DWIDTH 8 0
BBX 8 13 0 -1
BITMAP
CC
EC
FC
DC
CC
CC
00
30
30
30
30
30
3F
ENDCHAR
STARTCHAR U+09E9
ENCODING 10
SWIDTH 360 0
DWIDTH 8 0
BBX 8 13 0 -1
BITMAP
CC
CC
CC
CC
78
30
00
3F
0C
0C
0C
0C
0C
ENDCHAR
STARTCHAR U+2518
ENCODING 11
SWIDTH 360 0
DWIDTH 7 0
BBX 4 8 0 3
BITMAP
30
30
30
30
30
30
30
F0
ENDCHAR
STARTCHAR U+2510
ENCODING 12
SWIDTH 360 0
DWIDTH 7 0
BBX 4 7 0 -3
BITMAP
F0
30
30
30
30
30
30
ENDCHAR
STARTCHAR U+250C
ENCODING 13
SWIDTH 360 0
DWIDTH 7 0
BBX 5 7 2 -3
BITMAP
F8
C0
C0
C0
C0
C0
C0
ENDCHAR
STARTCHAR U+2514
ENCODING 14
SWIDTH 360 0
DWIDTH 7 0
BBX 5 8 2 3
BITMAP
C0
C0
C0
C0
C0
C0
C0
F8
ENDCHAR
STARTCHAR U+253C
ENCODING 15
SWIDTH 360 0
DWIDTH 7 0
BBX 7 14 0 -3
BITMAP
30
30
30
30
30
30
30
FE
30
30
30
30
30
30
ENDCHAR
STARTCHAR U+23BA
ENCODING 16
SWIDTH 360 0
DWIDTH 8 0
BBX 8 2 0 10
BITMAP
FF
FF
ENDCHAR
STARTCHAR U+23BB
ENCODING 17
SWIDTH 360 0
DWIDTH 8 0
BBX 8 2 0 7
BITMAP
FF
FF
ENDCHAR
STARTCHAR U+2500
ENCODING 18
SWIDTH 360 0
DWIDTH 8 0
BBX 8 2 0 4
BITMAP
FF
FF
ENDCHAR
STARTCHAR U+23BC
ENCODING 19
SWIDTH 360 0
DWIDTH 8 0
BBX 8 2 0 1
BITMAP
FF
FF
ENDCHAR
STARTCHAR U+23BD
ENCODING 20
SWIDTH 360 0
DWIDTH 8 0
BBX 8 2 0 -2
BITMAP
FF
FF
ENDCHAR
STARTCHAR U+251C
ENCODING 21
SWIDTH 360 0
DWIDTH 7 0
BBX 5 14 2 -3
BITMAP
C0
C0
C0
C0
C0
C0
C0
F8
C0
C0
C0
C0
C0
C0
ENDCHAR
STARTCHAR U+2524
ENCODING 22
SWIDTH 360 0
DWIDTH 7 0
BBX 4 14 0 -3
BITMAP
30
30
30
30
30
30
30
F0
30
30
30
30
30
30
ENDCHAR
STARTCHAR U+2534
ENCODING 23
SWIDTH 360 0
DWIDTH 7 0
BBX 7 8 0 3
BITMAP
30
30
30
30
30
30
30
FE
ENDCHAR
STARTCHAR U+252C
ENCODING 24
SWIDTH 360 0
DWIDTH 7 0
BBX 7 7 0 -3
BITMAP
FE
30
30
30
30
30
30
ENDCHAR
STARTCHAR U+2502
ENCODING 25
SWIDTH 360 0
DWIDTH 7 0
BBX 2 14 2 -3
BITMAP
C0
C0
C0
C0
C0
C0
C0
C0
C0
C0
C0
C0
C0
C0
ENDCHAR
STARTCHAR U+2264
ENCODING 26
SWIDTH 360 0
DWIDTH 8 0
BBX 6 9 1 0
BITMAP
18
30
60
C0
60
30
18
00
FC
ENDCHAR
STARTCHAR U+2265
ENCODING 27
SWIDTH 360 0
DWIDTH 8 0
BBX 6 9 1 0
BITMAP
60
30
18
0C
18
30
60
00
FC
ENDCHAR
STARTCHAR U+03C0
ENCODING 28
SWIDTH 360 0
DWIDTH 8 0
BBX 7 7 0 0
BITMAP
FE
C6
C6
C6
C6
C6
C6
ENDCHAR
STARTCHAR U+2260
ENCODING 29
SWIDTH 360 0
DWIDTH 8 0
BBX 7 6 0 2
BITMAP
06
FE
18
30
FE
C0
ENDCHAR
STARTCHAR U+00A3
ENCODING 30
SWIDTH 360 0
DWIDTH 7 0
BBX 6 8 0 0
BITMAP
7C
60
60
F8
60
60
60
FC
ENDCHAR
STARTCHAR U+00B7
ENCODING 31
SWIDTH 360 0
DWIDTH 8 0
BBX 2 2 3 4
BITMAP
C0
C0
ENDCHAR
STARTCHAR U+0020
ENCODING 32
SWIDTH 360 0
DWIDTH 7 0
BBX 1 1 6 -3
BITMAP
00
ENDCHAR
STARTCHAR U+0021
ENCODING 33
SWIDTH 360 0
DWIDTH 7 0
BBX 2 8 2 0
BITMAP
C0
C0
C0
C0
C0
00
C0
C0
ENDCHAR
STARTCHAR U+0022
ENCODING 34
SWIDTH 360 0
DWIDTH 7 0
BBX 5 3 0 6
BITMAP
D8
D8
D8
ENDCHAR
STARTCHAR U+0023
ENCODING 35
SWIDTH 360 0
DWIDTH 7 0
BBX 7 8 0 0
BITMAP
6C
6C
FE
6C
6C
FE
6C
6C
ENDCHAR
STARTCHAR U+0024
ENCODING 36
SWIDTH 360 0
DWIDTH 7 0
BBX 6 10 0 -1
BITMAP
30
30
FC
C0
FC
0C
0C
FC
30
30
ENDCHAR
STARTCHAR U+0025
ENCODING 37
SWIDTH 360 0
DWIDTH 7 0
BBX 7 9 0 0
BITMAP
F0
D2
D4
F8
10
3E
5A
9A
1E
ENDCHAR
STARTCHAR U+0026
ENCODING 38
SWIDTH 360 0
DWIDTH 7 0
BBX 6 8 0 0
BITMAP
F8
D8
D8
70
DC
D8
DC
F4
ENDCHAR
STARTCHAR U+0027
ENCODING 39
SWIDTH 360 0
DWIDTH 7 0
BBX 2 3 2 6
BITMAP
C0
C0
C0
ENDCHAR
STARTCHAR U+0028
ENCODING 40
SWIDTH 360 0
DWIDTH 7 0
BBX 4 10 1 -1
BITMAP
30
60
C0
C0
C0
C0
C0
C0
60
30
ENDCHAR
STARTCHAR U+0029
ENCODING 41
SWIDTH 360 0
DWIDTH 7 0
BBX 4 10 1 -1
BITMAP
C0
60
30
30
30
30
30
30
60
C0
ENDCHAR
STARTCHAR U+002A
ENCODING 42
SWIDTH 360 0
DWIDTH 7 0
BBX 6 5 0 1
BITMAP
30
FC
78
FC
30
ENDCHAR
STARTCHAR U+002B
ENCODING 43
SWIDTH 360 0
DWIDTH 7 0
BBX 6 5 0 1
BITMAP
30
30
FC
30
30
ENDCHAR
STARTCHAR U+002C
ENCODING 44
SWIDTH 360 0
DWIDTH 7 0
BBX 2 4 2 -2
BITMAP
C0
C0
40
80
ENDCHAR
STARTCHAR U+002D
ENCODING 45
SWIDTH 360 0
DWIDTH 7 0
BBX 6 1 0 3
BITMAP
FC
ENDCHAR
STARTCHAR U+002E
ENCODING 46
SWIDTH 360 0
DWIDTH 7 0
BBX 2 2 2 0
BITMAP
C0
C0
ENDCHAR
STARTCHAR U+002F
ENCODING 47
SWIDTH 360 0
DWIDTH 7 0
BBX 6 10 0 -1
BITMAP
0C
0C
18
18
30
30
60
60
C0
C0
ENDCHAR
STARTCHAR U+0030
ENCODING 48
SWIDTH 360 0
DWIDTH 7 0
BBX 6 8 0 0
BITMAP
FC
CC
DC
DC
EC
EC
CC
FC
ENDCHAR
STARTCHAR U+0031
ENCODING 49
SWIDTH 360 0
DWIDTH 7 0
BBX 4 8 1 0
BITMAP
30
70
F0
30
30
30
30
30
ENDCHAR
STARTCHAR U+0032
ENCODING 50
SWIDTH 360 0
DWIDTH 7 0
BBX 6 8 0 0
BITMAP
FC
0C
0C
FC
C0
C0
C0
FC
ENDCHAR
STARTCHAR U+0033
ENCODING 51
SWIDTH 360 0
DWIDTH 7 0
BBX 6 8 0 0
BITMAP
FC
0C
0C
FC
0C
0C
0C
FC
ENDCHAR
STARTCHAR U+0034
ENCODING 52
SWIDTH 360 0
DWIDTH 7 0
BBX 6 8 0 0
BITMAP
CC
CC
CC
FC
0C
0C
0C
0C
ENDCHAR
STARTCHAR U+0035
ENCODING 53
SWIDTH 360 0
DWIDTH 7 0
BBX 6 8 0 0
BITMAP
FC
C0
C0
FC
0C
0C
0C
FC
ENDCHAR
STARTCHAR U+0036
ENCODING 54
SWIDTH 360 0
DWIDTH 7 0
BBX 6 8 0 0
BITMAP
FC
C0
C0
FC
CC
CC
CC
FC
ENDCHAR
STARTCHAR U+0037
ENCODING 55
SWIDTH 360 0
DWIDTH 7 0
BBX 6 8 0 0
BITMAP
FC
0C
0C
0C
0C
0C
0C
0C
ENDCHAR
STARTCHAR U+0038
ENCODING 56
SWIDTH 360 0
DWIDTH 7 0
BBX 6 8 0 0
BITMAP
FC
CC
CC
78
CC
CC
CC
FC
ENDCHAR
STARTCHAR U+0039
ENCODING 57
SWIDTH 360 0
DWIDTH 7 0
BBX 6 8 0 0
BITMAP
FC
CC
CC
FC
0C
0C
0C
0C
ENDCHAR
STARTCHAR U+003A
ENCODING 58
SWIDTH 360 0
DWIDTH 7 0
BBX 2 6 2 0
BITMAP
C0
C0
00
00
C0
C0
ENDCHAR
STARTCHAR U+003B
ENCODING 59
SWIDTH 360 0
DWIDTH 7 0
BBX 2 8 2 -2
BITMAP
C0
C0
00
00
C0
C0
40
80
ENDCHAR
STARTCHAR U+003C
ENCODING 60
SWIDTH 360 0
DWIDTH 7 0
BBX 5 7 0 0
BITMAP
18
30
60
C0
60
30
18
ENDCHAR
STARTCHAR U+003D
ENCODING 61
SWIDTH 360 0
DWIDTH 7 0
BBX 6 3 0 2
BITMAP
FC
00
FC
ENDCHAR
STARTCHAR U+003E
ENCODING 62
SWIDTH 360 0
DWIDTH 7 0
BBX 5 7 1 0
BITMAP
C0
60
30
18
30
60
C0
ENDCHAR
STARTCHAR U+003F
ENCODING 63
SWIDTH 360 0
DWIDTH 7 0
BBX 6 8 0 0
BITMAP
FC
0C
0C
3C
30
00
30
30
ENDCHAR
STARTCHAR U+0040
ENCODING 64
SWIDTH 360 0
DWIDTH 7 0
BBX 6 9 0 -1
BITMAP
FC
C4
C4
DC
DC
DC
DC
C0
FC
ENDCHAR
STARTCHAR U+0041
ENCODING 65
SWIDTH 360 0
DWIDTH 7 0
BBX 6 8 0 0
BITMAP
FC
CC
CC
FC
CC
CC
CC
CC
ENDCHAR
STARTCHAR U+0042
ENCODING 66
SWIDTH 360 0
DWIDTH 7 0
BBX 6 8 0 0
BITMAP
F8
D8
D8
FC
CC
CC
CC
FC
ENDCHAR
STARTCHAR U+0043
ENCODING 67
SWIDTH 360 0
DWIDTH 7 0
BBX 6 8 0 0
BITMAP
FC
C0
C0
C0
C0
C0
C0
FC
ENDCHAR
STARTCHAR U+0044
ENCODING 68
SWIDTH 360 0
DWIDTH 7 0
BBX 6 8 0 0
BITMAP
F8
CC
CC
CC
CC
CC
CC
F8
ENDCHAR
STARTCHAR U+0045
ENCODING 69
SWIDTH 360 0
DWIDTH 7 0
BBX 6 8 0 0
BITMAP
FC
C0
C0
FC
C0
C0
C0
FC
ENDCHAR
STARTCHAR U+0046
ENCODING 70
SWIDTH 360 0
DWIDTH 7 0
BBX 6 8 0 0
BITMAP
FC
C0
C0
FC
C0
C0
C0
C0
ENDCHAR
STARTCHAR U+0047
ENCODING 71
SWIDTH 360 0
DWIDTH 7 0
BBX 6 8 0 0
BITMAP
FC
C0
C0
DC
CC
CC
CC
FC
ENDCHAR
STARTCHAR U+0048
ENCODING 72
SWIDTH 360 0
DWIDTH 7 0
BBX 6 8 0 0
BITMAP
CC
CC
CC
FC
CC
CC
CC
CC
ENDCHAR
STARTCHAR U+0049
ENCODING 73
SWIDTH 360 0
DWIDTH 7 0
BBX 6 8 0 0
BITMAP
FC
30
30
30
30
30
30
FC
ENDCHAR
STARTCHAR U+004A
ENCODING 74
SWIDTH 360 0
DWIDTH 7 0
BBX 6 8 0 0
BITMAP
0C
0C
0C
0C
0C
0C
0C
FC
ENDCHAR
STARTCHAR U+004B
ENCODING 75
SWIDTH 360 0
DWIDTH 7 0
BBX 6 8 0 0
BITMAP
CC
D8
F0
E0
E0
F0
D8
CC
ENDCHAR
STARTCHAR U+004C
ENCODING 76
SWIDTH 360 0
DWIDTH 7 0
BBX 6 8 0 0
BITMAP
C0
C0
C0
C0
C0
C0
C0
FC
ENDCHAR
STARTCHAR U+004D
ENCODING 77
SWIDTH 360 0
DWIDTH 7 0
BBX 6 8 0 0
BITMAP
FC
D4
D4
D4
D4
D4
D4
D4
ENDCHAR
STARTCHAR U+004E
ENCODING 78
SWIDTH 360 0
DWIDTH 7 0
BBX 6 8 0 0
BITMAP
FC
CC
CC
CC
CC
CC
CC
CC
ENDCHAR
STARTCHAR U+004F
ENCODING 79
SWIDTH 360 0
DWIDTH 7 0
BBX 6 8 0 0
BITMAP
FC
CC
CC
CC
CC
CC
CC
FC
ENDCHAR
STARTCHAR U+0050
ENCODING 80
SWIDTH 360 0
DWIDTH 7 0
BBX 6 8 0 0
BITMAP
FC
CC
CC
FC
C0
C0
C0
C0
ENDCHAR
STARTCHAR U+0051
ENCODING 81
SWIDTH 360 0
DWIDTH 7 0
BBX 7 9 0 -1
BITMAP
FC
CC
CC
CC
CC
CC
CC
FC
06
ENDCHAR
STARTCHAR U+0052
ENCODING 82
SWIDTH 360 0
DWIDTH 7 0
BBX 6 8 0 0
BITMAP
FC
CC
CC
FC
F0
D8
CC
CC
ENDCHAR
STARTCHAR U+0053
ENCODING 83
SWIDTH 360 0
DWIDTH 7 0
BBX 6 8 0 0
BITMAP
FC
C0
C0
FC
0C
0C
0C
FC
ENDCHAR
STARTCHAR U+0054
ENCODING 84
SWIDTH 360 0
DWIDTH 7 0
BBX 6 8 0 0
BITMAP
FC
30
30
30
30
30
30
30
ENDCHAR
STARTCHAR U+0055
ENCODING 85
SWIDTH 360 0
DWIDTH 7 0
BBX 6 8 0 0
BITMAP
CC
CC
CC
CC
CC
CC
CC
FC
ENDCHAR
STARTCHAR U+0056
ENCODING 86
SWIDTH 360 0
DWIDTH 7 0
BBX 6 8 0 0
BITMAP
CC
CC
CC
CC
CC
CC
78
30
ENDCHAR
STARTCHAR U+0057
ENCODING 87
SWIDTH 360 0
DWIDTH 7 0
BBX 6 8 0 0
BITMAP
D4
D4
D4
D4
D4
D4
D4
FC
ENDCHAR
STARTCHAR U+0058
ENCODING 88
SWIDTH 360 0
DWIDTH 7 0
BBX 6 8 0 0
BITMAP
CC
CC
78
30
30
78
CC
CC
ENDCHAR
STARTCHAR U+0059
ENCODING 89
SWIDTH 360 0
DWIDTH 7 0
BBX 6 8 0 0
BITMAP
CC
CC
CC
FC
30
30
30
30
ENDCHAR
STARTCHAR U+005A
ENCODING 90
SWIDTH 360 0
DWIDTH 7 0
BBX 6 8 0 0
BITMAP
FC
0C
18
30
60
C0
C0
FC
ENDCHAR
STARTCHAR U+005B
ENCODING 91
SWIDTH 360 0
DWIDTH 7 0
BBX 4 10 1 -1
BITMAP
F0
C0
C0
C0
C0
C0
C0
C0
C0
F0
ENDCHAR
STARTCHAR U+005C
ENCODING 92
SWIDTH 360 0
DWIDTH 7 0
BBX 6 10 0 -1
BITMAP
C0
C0
60
60
30
30
18
18
0C
0C
ENDCHAR
STARTCHAR U+005D
ENCODING 93
SWIDTH 360 0
DWIDTH 7 0
BBX 4 10 1 -1
BITMAP
F0
30
30
30
30
30
30
30
30
F0
ENDCHAR
STARTCHAR U+005E
ENCODING 94
SWIDTH 360 0
DWIDTH 7 0
BBX 6 3 0 6
BITMAP
30
78
CC
ENDCHAR
STARTCHAR U+005F
ENCODING 95
SWIDTH 360 0
DWIDTH 7 0
BBX 6 1 0 -1
BITMAP
FC
ENDCHAR
STARTCHAR U+0060
ENCODING 96
SWIDTH 360 0
DWIDTH 7 0
BBX 4 3 1 6
BITMAP
C0
60
30
ENDCHAR
STARTCHAR U+0061
ENCODING 97
SWIDTH 360 0
DWIDTH 7 0
BBX 6 6 0 0
BITMAP
FC
0C
FC
CC
CC
FC
ENDCHAR
STARTCHAR U+0062
ENCODING 98
SWIDTH 360 0
DWIDTH 7 0
BBX 6 8 0 0
BITMAP
C0
C0
FC
CC
CC
CC
CC
FC
ENDCHAR
STARTCHAR U+0063
ENCODING 99
SWIDTH 360 0
DWIDTH 7 0
BBX 6 6 0 0
BITMAP
FC
C0
C0
C0
C0
FC
ENDCHAR
STARTCHAR U+0064
ENCODING 100
SWIDTH 360 0
DWIDTH 7 0
BBX 6 8 0 0
BITMAP
0C
0C
FC
CC
CC
CC
CC
FC
ENDCHAR
STARTCHAR U+0065
ENCODING 101
SWIDTH 360 0
DWIDTH 7 0
BBX 6 6 0 0
BITMAP
FC
CC
FC
C0
C0
FC
ENDCHAR
STARTCHAR U+0066
ENCODING 102
SWIDTH 360 0
DWIDTH 7 0
BBX 6 8 0 0
BITMAP
7C
60
F8
60
60
60
60
60
ENDCHAR
STARTCHAR U+0067
ENCODING 103
SWIDTH 360 0
DWIDTH 7 0
BBX 6 8 0 -2
BITMAP
FC
CC
CC
CC
CC
FC
0C
FC
ENDCHAR
STARTCHAR U+0068
ENCODING 104
SWIDTH 360 0
DWIDTH 7 0
BBX 6 8 0 0
BITMAP
C0
C0
FC
CC
CC
CC
CC
CC
ENDCHAR
STARTCHAR U+0069
ENCODING 105
SWIDTH 360 0
DWIDTH 7 0
BBX 6 9 0 0
BITMAP
30
30
00
F0
30
30
30
30
3C
ENDCHAR
STARTCHAR U+006A
ENCODING 106
SWIDTH 360 0
DWIDTH 7 0
BBX 5 11 0 -2
BITMAP
18
18
00
18
18
18
18
18
18
18
F8
ENDCHAR
STARTCHAR U+006B
ENCODING 107
SWIDTH 360 0
DWIDTH 7 0
BBX 6 8 0 0
BITMAP
C0
C0
D8
F0
E0
F0
D8
CC
ENDCHAR
STARTCHAR U+006C
ENCODING 108
SWIDTH 360 0
DWIDTH 7 0
BBX 6 8 0 0
BITMAP
F0
30
30
30
30
30
30
3C
ENDCHAR
STARTCHAR U+006D
ENCODING 109
SWIDTH 360 0
DWIDTH 7 0
BBX 6 6 0 0
BITMAP
FC
D4
D4
D4
D4
D4
ENDCHAR
STARTCHAR U+006E
ENCODING 110
SWIDTH 360 0
DWIDTH 7 0
BBX 6 6 0 0
BITMAP
FC
CC
CC
CC
CC
CC
ENDCHAR
STARTCHAR U+006F
ENCODING 111
SWIDTH 360 0
DWIDTH 7 0
BBX 6 6 0 0
BITMAP
FC
CC
CC
CC
CC
FC
ENDCHAR
STARTCHAR U+0070
ENCODING 112
SWIDTH 360 0
DWIDTH 7 0
BBX 6 8 0 -2
BITMAP
FC
CC
CC
CC
CC
FC
C0
C0
ENDCHAR
STARTCHAR U+0071
ENCODING 113
SWIDTH 360 0
DWIDTH 7 0
BBX 6 8 0 -2
BITMAP
FC
CC
CC
CC
CC
FC
0C
0C
ENDCHAR
STARTCHAR U+0072
ENCODING 114
SWIDTH 360 0
DWIDTH 7 0
BBX 6 6 0 0
BITMAP
FC
C0
C0
C0
C0
C0
ENDCHAR
STARTCHAR U+0073
ENCODING 115
SWIDTH 360 0
DWIDTH 7 0
BBX 6 6 0 0
BITMAP
FC
C0
FC
0C
0C
FC
ENDCHAR
STARTCHAR U+0074
ENCODING 116
SWIDTH 360 0
DWIDTH 7 0
BBX 6 8 0 0
BITMAP
60
60
F8
60
60
60
60
7C
ENDCHAR
STARTCHAR U+0075
ENCODING 117
SWIDTH 360 0
DWIDTH 7 0
BBX 6 6 0 0
BITMAP
CC
CC
CC
CC
CC
FC
ENDCHAR
STARTCHAR U+0076
ENCODING 118
SWIDTH 360 0
DWIDTH 7 0
BBX 6 6 0 0
BITMAP
CC
CC
CC
CC
78
30
ENDCHAR
STARTCHAR U+0077
ENCODING 119
SWIDTH 360 0
DWIDTH 7 0
BBX 6 6 0 0
BITMAP
D4
D4
D4
D4
D4
FC
ENDCHAR
STARTCHAR U+0078
ENCODING 120
SWIDTH 360 0
DWIDTH 7 0
BBX 6 6 0 0
BITMAP
CC
78
30
30
78
CC
ENDCHAR
STARTCHAR U+0079
ENCODING 121
SWIDTH 360 0
DWIDTH 7 0
BBX 6 8 0 -2
BITMAP
CC
CC
CC
CC
CC
FC
0C
FC
ENDCHAR
STARTCHAR U+007A
ENCODING 122
SWIDTH 360 0
DWIDTH 7 0
BBX 6 6 0 0
BITMAP
FC
18
30
60
C0
FC
ENDCHAR
STARTCHAR U+007B
ENCODING 123
SWIDTH 360 0
DWIDTH 7 0
BBX 5 10 0 -1
BITMAP
78
60
60
60
C0
60
60
60
60
78
ENDCHAR
STARTCHAR U+007C
ENCODING 124
SWIDTH 360 0
DWIDTH 7 0
BBX 2 10 2 -1
BITMAP
C0
C0
C0
C0
C0
C0
C0
C0
C0
C0
ENDCHAR
STARTCHAR U+007D
ENCODING 125
SWIDTH 360 0
DWIDTH 7 0
BBX 5 10 1 -1
BITMAP
F0
30
30
30
18
30
30
30
30
F0
ENDCHAR
STARTCHAR U+007E
ENCODING 126
SWIDTH 360 0
DWIDTH 7 0
BBX 5 3 1 6
BITMAP
E8
A8
B8
ENDCHAR
STARTCHAR uni008A
ENCODING 138
SWIDTH 1000 0
DWIDTH 7 0
BBX 6 11 0 0
BITMAP
48
30
00
FC
C0
C0
FC
0C
0C
0C
FC
ENDCHAR
STARTCHAR uni008E
ENCODING 142
SWIDTH 1000 0
DWIDTH 7 0
BBX 6 11 0 0
BITMAP
48
30
00
FC
0C
18
30
60
C0
C0
FC
ENDCHAR
STARTCHAR uni009A
ENCODING 154
SWIDTH 1000 0
DWIDTH 7 0
BBX 6 9 0 0
BITMAP
48
30
00
FC
C0
FC
0C
0C
FC
ENDCHAR
STARTCHAR uni009E
ENCODING 158
SWIDTH 1000 0
DWIDTH 7 0
BBX 6 9 0 0
BITMAP
48
30
00
FC
18
30
60
C0
FC
ENDCHAR
STARTCHAR uni009F
ENCODING 159
SWIDTH 1000 0
DWIDTH 7 0
BBX 6 11 0 0
BITMAP
48
48
00
CC
CC
CC
FC
30
30
30
30
ENDCHAR
STARTCHAR U+00A0
ENCODING 160
SWIDTH 360 0
DWIDTH 7 0
BBX 1 1 6 -3
BITMAP
00
ENDCHAR
STARTCHAR U+00A1
ENCODING 161
SWIDTH 360 0
DWIDTH 7 0
BBX 2 8 2 0
BITMAP
C0
C0
00
C0
C0
C0
C0
C0
ENDCHAR
STARTCHAR U+00A2
ENCODING 162
SWIDTH 360 0
DWIDTH 7 0
BBX 6 8 0 -1
BITMAP
10
FC
D0
D0
D0
D0
FC
10
ENDCHAR
STARTCHAR U+00A3
ENCODING 163
SWIDTH 360 0
DWIDTH 7 0
BBX 6 8 0 0
BITMAP
7C
60
60
F8
60
60
60
FC
ENDCHAR
STARTCHAR U+00A4
ENCODING 164
SWIDTH 360 0
DWIDTH 7 0
BBX 6 6 0 0
BITMAP
CC
78
48
48
78
CC
ENDCHAR
STARTCHAR U+00A5
ENCODING 165
SWIDTH 360 0
DWIDTH 7 0
BBX 6 8 0 0
BITMAP
CC
CC
FC
30
FC
30
FC
30
ENDCHAR
STARTCHAR U+00A6
ENCODING 166
SWIDTH 360 0
DWIDTH 7 0
BBX 2 8 2 0
BITMAP
C0
C0
C0
00
00
C0
C0
C0
ENDCHAR
STARTCHAR U+00A7
ENCODING 167
SWIDTH 360 0
DWIDTH 7 0
BBX 6 8 0 0
BITMAP
FC
C0
FC
CC
CC
FC
0C
FC
ENDCHAR
STARTCHAR U+00A8
ENCODING 168
SWIDTH 360 0
DWIDTH 7 0
BBX 4 2 1 9
BITMAP
90
90
ENDCHAR
STARTCHAR U+00A9
ENCODING 169
SWIDTH 360 0
DWIDTH 7 0
BBX 6 8 0 0
BITMAP
FC
84
B4
A4
A4
B4
84
FC
ENDCHAR
STARTCHAR U+00AA
ENCODING 170
SWIDTH 360 0
DWIDTH 7 0
BBX 5 7 1 2
BITMAP
F8
18
F8
D8
F8
00
F8
ENDCHAR
STARTCHAR U+00AB
ENCODING 171
SWIDTH 360 0
DWIDTH 7 0
BBX 6 7 0 0
BITMAP
14
28
50
A0
50
28
14
ENDCHAR
STARTCHAR U+00AC
ENCODING 172
SWIDTH 360 0
DWIDTH 7 0
BBX 6 3 0 2
BITMAP
FC
0C
0C
ENDCHAR
STARTCHAR U+00AD
ENCODING 173
SWIDTH 360 0
DWIDTH 7 0
BBX 4 1 1 3
BITMAP
F0
ENDCHAR
STARTCHAR U+00AE
ENCODING 174
SWIDTH 360 0
DWIDTH 7 0
BBX 6 8 0 0
BITMAP
FC
84
B4
A4
A4
A4
84
FC
ENDCHAR
STARTCHAR U+00AF
ENCODING 175
SWIDTH 360 0
DWIDTH 7 0
BBX 4 1 1 9
BITMAP
F0
ENDCHAR
STARTCHAR U+00B0
ENCODING 176
SWIDTH 360 0
DWIDTH 7 0
BBX 4 4 1 5
BITMAP
F0
D0
D0
F0
ENDCHAR
STARTCHAR U+00B1
ENCODING 177
SWIDTH 360 0
DWIDTH 7 0
BBX 6 7 0 0
BITMAP
30
30
FC
30
30
00
FC
ENDCHAR
STARTCHAR U+00B2
ENCODING 178
SWIDTH 360 0
DWIDTH 7 0
BBX 4 5 1 4
BITMAP
F0
30
F0
C0
F0
ENDCHAR
STARTCHAR U+00B3
ENCODING 179
SWIDTH 360 0
DWIDTH 7 0
BBX 4 5 1 4
BITMAP
F0
30
F0
30
F0
ENDCHAR
STARTCHAR U+00B4
ENCODING 180
SWIDTH 360 0
DWIDTH 7 0
BBX 2 2 3 9
BITMAP
40
80
ENDCHAR
STARTCHAR U+00B5
ENCODING 181
SWIDTH 360 0
DWIDTH 7 0
BBX 6 8 0 -2
BITMAP
CC
CC
CC
CC
CC
FC
C0
C0
ENDCHAR
STARTCHAR U+00B6
ENCODING 182
SWIDTH 360 0
DWIDTH 7 0
BBX 6 8 0 0
BITMAP
FC
F4
F4
F4
34
34
34
34
ENDCHAR
STARTCHAR U+00B7
ENCODING 183
SWIDTH 360 0
DWIDTH 7 0
BBX 2 2 2 4
BITMAP
C0
C0
ENDCHAR
STARTCHAR U+00B8
ENCODING 184
SWIDTH 360 0
DWIDTH 7 0
BBX 2 3 2 -2
BITMAP
40
40
80
ENDCHAR
STARTCHAR U+00B9
ENCODING 185
SWIDTH 360 0
DWIDTH 7 0
BBX 3 5 1 4
BITMAP
60
E0
60
60
60
ENDCHAR
STARTCHAR U+00BA
ENCODING 186
SWIDTH 360 0
DWIDTH 7 0
BBX 5 7 1 2
BITMAP
F8
D8
D8
D8
F8
00
F8
ENDCHAR
STARTCHAR U+00BB
ENCODING 187
SWIDTH 360 0
DWIDTH 7 0
BBX 6 7 0 0
BITMAP
A0
50
28
14
28
50
A0
ENDCHAR
STARTCHAR U+00BC
ENCODING 188
SWIDTH 360 0
DWIDTH 7 0
BBX 7 12 0 -1
BITMAP
60
E0
60
64
68
10
20
76
B6
3E
06
06
ENDCHAR
STARTCHAR U+00BD
ENCODING 189
SWIDTH 360 0
DWIDTH 7 0
BBX 7 12 0 -1
BITMAP
60
E0
60
64
68
10
20
5E
86
1E
18
1E
ENDCHAR
STARTCHAR U+00BE
ENCODING 190
SWIDTH 360 0
DWIDTH 7 0
BBX 7 12 0 -1
BITMAP
F0
30
F0
34
F8
10
20
76
B6
3E
06
06
ENDCHAR
STARTCHAR U+00BF
ENCODING 191
SWIDTH 360 0
DWIDTH 7 0
BBX 6 8 0 0
BITMAP
30
30
00
30
F0
C0
C0
FC
ENDCHAR
STARTCHAR U+00C0
ENCODING 192
SWIDTH 360 0
DWIDTH 7 0
BBX 6 11 0 0
BITMAP
40
20
00
FC
CC
CC
FC
CC
CC
CC
CC
ENDCHAR
STARTCHAR U+00C1
ENCODING 193
SWIDTH 360 0
DWIDTH 7 0
BBX 6 11 0 0
BITMAP
08
10
00
FC
CC
CC
FC
CC
CC
CC
CC
ENDCHAR
STARTCHAR U+00C2
ENCODING 194
SWIDTH 360 0
DWIDTH 7 0
BBX 6 11 0 0
BITMAP
30
48
00
FC
CC
CC
FC
CC
CC
CC
CC
ENDCHAR
STARTCHAR U+00C3
ENCODING 195
SWIDTH 360 0
DWIDTH 7 0
BBX 6 11 0 0
BITMAP
28
50
00
FC
CC
CC
FC
CC
CC
CC
CC
ENDCHAR
STARTCHAR U+00C4
ENCODING 196
SWIDTH 360 0
DWIDTH 7 0
BBX 6 11 0 0
BITMAP
48
48
00
FC
CC
CC
FC
CC
CC
CC
CC
ENDCHAR
STARTCHAR U+00C5
ENCODING 197
SWIDTH 360 0
DWIDTH 7 0
BBX 6 11 0 0
BITMAP
30
48
30
FC
CC
CC
FC
CC
CC
CC
CC
ENDCHAR
STARTCHAR U+00C6
ENCODING 198
SWIDTH 360 0
DWIDTH 7 0
BBX 6 8 0 0
BITMAP
FC
D8
D8
FC
D8
D8
D8
DC
ENDCHAR
STARTCHAR U+00C7
ENCODING 199
SWIDTH 360 0
DWIDTH 7 0
BBX 6 10 0 -2
BITMAP
FC
C0
C0
C0
C0
C0
C0
FC
10
20
ENDCHAR
STARTCHAR U+00C8
ENCODING 200
SWIDTH 360 0
DWIDTH 7 0
BBX 6 11 0 0
BITMAP
40
20
00
FC
C0
C0
FC
C0
C0
C0
FC
ENDCHAR
STARTCHAR U+00C9
ENCODING 201
SWIDTH 360 0
DWIDTH 7 0
BBX 6 11 0 0
BITMAP
08
10
00
FC
C0
C0
FC
C0
C0
C0
FC
ENDCHAR
STARTCHAR U+00CA
ENCODING 202
SWIDTH 360 0
DWIDTH 7 0
BBX 6 11 0 0
BITMAP
30
48
00
FC
C0
C0
FC
C0
C0
C0
FC
ENDCHAR
STARTCHAR U+00CB
ENCODING 203
SWIDTH 360 0
DWIDTH 7 0
BBX 6 11 0 0
BITMAP
48
48
00
FC
C0
C0
FC
C0
C0
C0
FC
ENDCHAR
STARTCHAR U+00CC
ENCODING 204
SWIDTH 360 0
DWIDTH 7 0
BBX 6 11 0 0
BITMAP
40
20
00
FC
30
30
30
30
30
30
FC
ENDCHAR
STARTCHAR U+00CD
ENCODING 205
SWIDTH 360 0
DWIDTH 7 0
BBX 6 11 0 0
BITMAP
08
10
00
FC
30
30
30
30
30
30
FC
ENDCHAR
STARTCHAR U+00CE
ENCODING 206
SWIDTH 360 0
DWIDTH 7 0
BBX 6 11 0 0
BITMAP
30
48
00
FC
30
30
30
30
30
30
FC
ENDCHAR
STARTCHAR U+00CF
ENCODING 207
SWIDTH 360 0
DWIDTH 7 0
BBX 6 11 0 0
BITMAP
48
48
00
FC
30
30
30
30
30
30
FC
ENDCHAR
STARTCHAR U+00D0
ENCODING 208
SWIDTH 360 0
DWIDTH 7 0
BBX 6 8 0 0
BITMAP
F8
CC
CC
EC
CC
CC
CC
F8
ENDCHAR
STARTCHAR U+00D1
ENCODING 209
SWIDTH 360 0
DWIDTH 7 0
BBX 6 11 0 0
BITMAP
28
50
00
FC
CC
CC
CC
CC
CC
CC
CC
ENDCHAR
STARTCHAR U+00D2
ENCODING 210
SWIDTH 360 0
DWIDTH 7 0
BBX 6 11 0 0
BITMAP
40
20
00
FC
CC
CC
CC
CC
CC
CC
FC
ENDCHAR
STARTCHAR U+00D3
ENCODING 211
SWIDTH 360 0
DWIDTH 7 0
BBX 6 11 0 0
BITMAP
08
10
00
FC
CC
CC
CC
CC
CC
CC
FC
ENDCHAR
STARTCHAR U+00D4
ENCODING 212
SWIDTH 360 0
DWIDTH 7 0
BBX 6 11 0 0
BITMAP
30
48
00
FC
CC
CC
CC
CC
CC
CC
FC
ENDCHAR
STARTCHAR U+00D5
ENCODING 213
SWIDTH 360 0
DWIDTH 7 0
BBX 6 11 0 0
BITMAP
28
50
00
FC
CC
CC
CC
CC
CC
CC
FC
ENDCHAR
STARTCHAR U+00D6
ENCODING 214
SWIDTH 360 0
DWIDTH 7 0
BBX 6 11 0 0
BITMAP
48
48
00
FC
CC
CC
CC
CC
CC
CC
FC
ENDCHAR
STARTCHAR U+00D7
ENCODING 215
SWIDTH 360 0
DWIDTH 7 0
BBX 6 5 0 1
BITMAP
CC
78
30
78
CC
ENDCHAR
STARTCHAR U+00D8
ENCODING 216
SWIDTH 360 0
DWIDTH 7 0
BBX 7 8 0 0
BITMAP
FE
CC
CC
DC
EC
CC
CC
FC
ENDCHAR
STARTCHAR U+00D9
ENCODING 217
SWIDTH 360 0
DWIDTH 7 0
BBX 6 11 0 0
BITMAP
40
20
00
CC
CC
CC
CC
CC
CC
CC
FC
ENDCHAR
STARTCHAR U+00DA
ENCODING 218
SWIDTH 360 0
DWIDTH 7 0
BBX 6 11 0 0
BITMAP
08
10
00
CC
CC
CC
CC
CC
CC
CC
FC
ENDCHAR
STARTCHAR U+00DB
ENCODING 219
SWIDTH 360 0
DWIDTH 7 0
BBX 6 11 0 0
BITMAP
30
48
00
CC
CC
CC
CC
CC
CC
CC
FC
ENDCHAR
STARTCHAR U+00DC
ENCODING 220
SWIDTH 360 0
DWIDTH 7 0
BBX 6 11 0 0
BITMAP
48
48
00
CC
CC
CC
CC
CC
CC
CC
FC
ENDCHAR
STARTCHAR U+00DD
ENCODING 221
SWIDTH 360 0
DWIDTH 7 0
BBX 6 11 0 0
BITMAP
08
10
00
CC
CC
CC
FC
30
30
30
30
ENDCHAR
STARTCHAR U+00DE
ENCODING 222
SWIDTH 360 0
DWIDTH 7 0
BBX 6 8 0 0
BITMAP
C0
FC
CC
CC
CC
CC
FC
C0
ENDCHAR
STARTCHAR U+00DF
ENCODING 223
SWIDTH 360 0
DWIDTH 7 0
BBX 6 8 0 0
BITMAP
F8
D8
FC
CC
CC
CC
CC
BC
ENDCHAR
STARTCHAR U+00E0
ENCODING 224
SWIDTH 360 0
DWIDTH 7 0
BBX 6 9 0 0
BITMAP
40
20
00
FC
0C
FC
CC
CC
FC
ENDCHAR
STARTCHAR U+00E1
ENCODING 225
SWIDTH 360 0
DWIDTH 7 0
BBX 6 9 0 0
BITMAP
08
10
00
FC
0C
FC
CC
CC
FC
ENDCHAR
STARTCHAR U+00E2
ENCODING 226
SWIDTH 360 0
DWIDTH 7 0
BBX 6 9 0 0
BITMAP
30
48
00
FC
0C
FC
CC
CC
FC
ENDCHAR
STARTCHAR U+00E3
ENCODING 227
SWIDTH 360 0
DWIDTH 7 0
BBX 6 9 0 0
BITMAP
28
50
00
FC
0C
FC
CC
CC
FC
ENDCHAR
STARTCHAR U+00E4
ENCODING 228
SWIDTH 360 0
DWIDTH 7 0
BBX 6 9 0 0
BITMAP
48
48
00
FC
0C
FC
CC
CC
FC
ENDCHAR
STARTCHAR U+00E5
ENCODING 229
SWIDTH 360 0
DWIDTH 7 0
BBX 6 10 0 0
BITMAP
30
48
30
00
FC
0C
FC
CC
CC
FC
ENDCHAR
STARTCHAR U+00E6
ENCODING 230
SWIDTH 360 0
DWIDTH 7 0
BBX 6 6 0 0
BITMAP
FC
34
FC
B0
B0
FC
ENDCHAR
STARTCHAR U+00E7
ENCODING 231
SWIDTH 360 0
DWIDTH 7 0
BBX 6 8 0 -2
BITMAP
FC
C0
C0
C0
C0
FC
10
20
ENDCHAR
STARTCHAR U+00E8
ENCODING 232
SWIDTH 360 0
DWIDTH 7 0
BBX 6 9 0 0
BITMAP
40
20
00
FC
CC
FC
C0
C0
FC
ENDCHAR
STARTCHAR U+00E9
ENCODING 233
SWIDTH 360 0
DWIDTH 7 0
BBX 6 9 0 0
BITMAP
08
10
00
FC
CC
FC
C0
C0
FC
ENDCHAR
STARTCHAR U+00EA
ENCODING 234
SWIDTH 360 0
DWIDTH 7 0
BBX 6 9 0 0
BITMAP
30
48
00
FC
CC
FC
C0
C0
FC
ENDCHAR
STARTCHAR U+00EB
ENCODING 235
SWIDTH 360 0
DWIDTH 7 0
BBX 6 9 0 0
BITMAP
48
48
00
FC
CC
FC
C0
C0
FC
ENDCHAR
STARTCHAR U+00EC
ENCODING 236
SWIDTH 360 0
DWIDTH 7 0
BBX 6 9 0 0
BITMAP
40
20
00
F0
30
30
30
30
3C
ENDCHAR
STARTCHAR U+00ED
ENCODING 237
SWIDTH 360 0
DWIDTH 7 0
BBX 6 9 0 0
BITMAP
08
10
00
F0
30
30
30
30
3C
ENDCHAR
STARTCHAR U+00EE
ENCODING 238
SWIDTH 360 0
DWIDTH 7 0
BBX 6 9 0 0
BITMAP
30
48
00
F0
30
30
30
30
3C
ENDCHAR
STARTCHAR U+00EF
ENCODING 239
SWIDTH 360 0
DWIDTH 7 0
BBX 6 9 0 0
BITMAP
48
48
00
F0
30
30
30
30
3C
ENDCHAR
STARTCHAR U+00F0
ENCODING 240
SWIDTH 360 0
DWIDTH 7 0
BBX 6 10 0 0
BITMAP
A0
40
A0
00
FC
CC
CC
CC
CC
FC
ENDCHAR
STARTCHAR U+00F1
ENCODING 241
SWIDTH 360 0
DWIDTH 7 0
BBX 6 9 0 0
BITMAP
28
50
00
FC
CC
CC
CC
CC
CC
ENDCHAR
STARTCHAR U+00F2
ENCODING 242
SWIDTH 360 0
DWIDTH 7 0
BBX 6 9 0 0
BITMAP
40
20
00
FC
CC
CC
CC
CC
FC
ENDCHAR
STARTCHAR U+00F3
ENCODING 243
SWIDTH 360 0
DWIDTH 7 0
BBX 6 9 0 0
BITMAP
08
10
00
FC
CC
CC
CC
CC
FC
ENDCHAR
STARTCHAR U+00F4
ENCODING 244
SWIDTH 360 0
DWIDTH 7 0
BBX 6 9 0 0
BITMAP
30
48
00
FC
CC
CC
CC
CC
FC
ENDCHAR
STARTCHAR U+00F5
ENCODING 245
SWIDTH 360 0
DWIDTH 7 0
BBX 6 9 0 0
BITMAP
28
50
00
FC
CC
CC
CC
CC
FC
ENDCHAR
STARTCHAR U+00F6
ENCODING 246
SWIDTH 360 0
DWIDTH 7 0
BBX 6 9 0 0
BITMAP
48
48
00
FC
CC
CC
CC
CC
FC
ENDCHAR
STARTCHAR U+00F7
ENCODING 247
SWIDTH 360 0
DWIDTH 7 0
BBX 6 7 0 0
BITMAP
30
30
00
FC
00
30
30
ENDCHAR
STARTCHAR U+00F8
ENCODING 248
SWIDTH 360 0
DWIDTH 7 0
BBX 7 6 0 0
BITMAP
FE
CC
DC
EC
CC
FC
ENDCHAR
STARTCHAR U+00F9
ENCODING 249
SWIDTH 360 0
DWIDTH 7 0
BBX 6 9 0 0
BITMAP
40
20
00
CC
CC
CC
CC
CC
FC
ENDCHAR
STARTCHAR U+00FA
ENCODING 250
SWIDTH 360 0
DWIDTH 7 0
BBX 6 9 0 0
BITMAP
08
10
00
CC
CC
CC
CC
CC
FC
ENDCHAR
STARTCHAR U+00FB
ENCODING 251
SWIDTH 360 0
DWIDTH 7 0
BBX 6 9 0 0
BITMAP
30
48
00
CC
CC
CC
CC
CC
FC
ENDCHAR
STARTCHAR U+00FC
ENCODING 252
SWIDTH 360 0
DWIDTH 7 0
BBX 6 9 0 0
BITMAP
48
48
00
CC
CC
CC
CC
CC
FC
ENDCHAR
STARTCHAR U+00FD
ENCODING 253
SWIDTH 360 0
DWIDTH 7 0
BBX 6 11 0 -2
BITMAP
08
10
00
CC
CC
CC
CC
CC
FC
0C
FC
ENDCHAR
STARTCHAR U+00FE
ENCODING 254
SWIDTH 360 0
DWIDTH 7 0
BBX 6 10 0 -2
BITMAP
C0
C0
FC
CC
CC
CC
CC
FC
C0
C0
ENDCHAR
STARTCHAR U+00FF
ENCODING 255
SWIDTH 360 0
DWIDTH 7 0
BBX 6 11 0 -2
BITMAP
48
48
00
CC
CC
CC
CC
CC
FC
0C
FC
ENDCHAR
ENDFONT
